<?xml version="1.0" encoding="utf-8"?>
<!-- Generator: Adobe Illustrator 19.2.1, SVG Export Plug-In . SVG Version: 6.00 Build 0)  -->
<svg version="1.1" id="Layer_1" xmlns="http://www.w3.org/2000/svg" xmlns:xlink="http://www.w3.org/1999/xlink" x="0px" y="0px"
	 viewBox="0 0 800 800" style="enable-background:new 0 0 800 800;" xml:space="preserve">
<style type="text/css">
	.st0{fill:#9DA5B1;}
	.st1{fill:#DFDFDF;}
	.st2{fill:#091E3D;}
	.st3{fill:#FFD3B0;}
	.st4{fill:#0A0A0A;}
	.st5{fill:#2E2F31;}
</style>
<path class="st0" d="M466.8,166.8c0,0,35.6-89.7,76.6-81.8c45.8,8.8,20.3,117,20.3,117L466.8,166.8L466.8,166.8z"/>
<path class="st0" d="M345.4,151.8c0,0-43.1-85.4-79.2-73s-9.7,124.9-9.7,124.9L345.4,151.8L345.4,151.8z"/>
<path class="st1" d="M299.6,158c0,0,12.3-14.9,115.2-11.4c102.9,3.5,160.1,39.6,160.1,39.6s35.5-27.2,70.1-39
	c51.4-17.5,120.6,11.9,126.1,23.2c4.2,8.6-19.4,84.8-50.1,110.9c-34.3,29.1-71.3,27.3-71.3,27.3s-8.1,53.4-9.7,93.3
	c-0.9,22.9,2.3,46.8,6.2,58.9c7.9,24.6,12.4,41.6,16.4,71.8c3.3,25.2,3.9,49.6,3.9,49.6L258.3,479.1L299.6,158L299.6,158z"/>
<path class="st2" d="M242.4,472.1c0,0,63.9-17,80.9-26.1c14.5-7.7,95.9-43.4,102.1-153.4S353.9,150.7,343.4,148
	c-10.6-2.6-48.7,7.6-71,18.8c-9.5,4.8-29.9,18.5-29.9,18.5s-40.5-42.3-103.8-48.4c-63.3-6.2-110.9,27.3-111.8,31.7
	c-0.9,4.4,23.8,90.8,68.8,120.9c13.1,8.8,30,12.7,41.6,14.2c30.3,4.1,41.8,0.4,41.8,0.4s-4.4,46.6-5.3,70.4s-1.4,57.3-4.1,81.6
	c-1.8,15.6-22.9,56.9-23.4,87.4C145.9,563.6,242.4,472.1,242.4,472.1L242.4,472.1z"/>
<path class="st3" d="M410.9,465.1c76,1.8,93.7-11.4,145.5-7.9s117.8,58.1,111.6,136.4s-71.4,134.6-141,150.4s-224.9,17.6-298.1-22
	c-73.5-39.8-89.3-93.3-90.1-143.4c-0.9-50.2,36.6-122.3,117.8-131C337.6,438.7,335.9,463.3,410.9,465.1L410.9,465.1z"/>
<path class="st3" d="M612,247.8c-13-22.8,0-58.7,41.1-68.1s82.1,9.4,82.1,9.4s-12.6,48.1-41.1,66.9
	C670.1,271.8,630.8,280.6,612,247.8z"/>
<path class="st3" d="M156.8,182.1c-36.6-11.4-84.1,3.4-84.1,3.4s1.5,21.1,16.5,41.6c9,12.3,22.4,26.9,43.7,33.9
	c49.9,16.4,68.5-13.3,72.6-26.8C209.6,220.8,202,196.1,156.8,182.1L156.8,182.1z"/>
<ellipse transform="matrix(0.1426 -0.9898 0.9898 0.1426 -89.05 613.286)" class="st4" cx="309.5" cy="358" rx="42.8" ry="33.6"/>
<ellipse transform="matrix(0.9881 -0.1538 0.1538 0.9881 -49.2824 84.6999)" class="st4" cx="522.7" cy="360.8" rx="33.6" ry="42.9"/>
<path class="st5" d="M457.1,622c-18.8-14.7-8.3-53.4,22.9-75.1c32.9-22.9,67.1-14.5,73.3-0.6c8.2,18.2-1.2,29.3-11.1,36.9
	c-9.4,7.2-22.3,5.9-30.5,10.6c-8.2,4.7-11.8,17-22.9,27C478.5,630.1,463.4,626.8,457.1,622L457.1,622z"/>
<path class="st5" d="M253,549.3c5.9-26.4,47.9-25.4,78-2.4c31.8,24.3,38.1,58.7,24.6,70.4c-15.4,13.4-30.3,6.7-39.5-1.3
	c-9-7.7-12.2-14-19.2-20.4c-6.9-6.4-19.4-8.3-32.3-15.8C252.8,572.8,250.5,560.5,253,549.3L253,549.3z"/>
</svg>
